<svg width="48" height="45" viewBox="0 0 48 45" fill="none" xmlns="http://www.w3.org/2000/svg">
<path fill-rule="evenodd" clip-rule="evenodd" d="M4.5 5.25C4.5 5.05109 4.57902 4.86032 4.71967 4.71967C4.86032 4.57902 5.05109 4.5 5.25 4.5H42.75C42.9489 4.5 43.1397 4.57902 43.2803 4.71967C43.421 4.86032 43.5 5.05109 43.5 5.25V30.75C43.5 30.9489 43.421 31.1397 43.2803 31.2803C43.1397 31.421 42.9489 31.5 42.75 31.5H23.25C22.6535 31.5005 22.0816 31.7379 21.66 32.16L13.5 40.32V33.75C13.5 33.1533 13.2629 32.581 12.841 32.159C12.419 31.7371 11.8467 31.5 11.25 31.5H5.25C5.05109 31.5 4.86032 31.421 4.71967 31.2803C4.57902 31.1397 4.5 30.9489 4.5 30.75V5.25ZM5.25 0C3.85761 0 2.52226 0.553123 1.53769 1.53769C0.553123 2.52226 0 3.85761 0 5.25L0 30.75C0 33.648 2.352 36 5.25 36H9V40.629C9.0003 41.4933 9.25682 42.3381 9.73713 43.0566C10.2174 43.7751 10.9 44.3351 11.6985 44.6658C12.497 44.9965 13.3756 45.0831 14.2233 44.9146C15.071 44.746 15.8497 44.33 16.461 43.719L24.183 36H42.75C44.1424 36 45.4777 35.4469 46.4623 34.4623C47.4469 33.4777 48 32.1424 48 30.75V5.25C48 3.85761 47.4469 2.52226 46.4623 1.53769C45.4777 0.553123 44.1424 0 42.75 0H5.25ZM20.34 10.41C20.7614 10.8319 20.998 11.4037 20.998 12C20.998 12.5963 20.7614 13.1681 20.34 13.59L15.93 18L20.34 22.41C20.7374 22.8365 20.9538 23.4007 20.9435 23.9836C20.9332 24.5665 20.6971 25.1226 20.2849 25.5349C19.8726 25.9471 19.3165 26.1832 18.7336 26.1935C18.1507 26.2038 17.5865 25.9874 17.16 25.59L11.16 19.59C10.7386 19.1681 10.502 18.5963 10.502 18C10.502 17.4037 10.7386 16.8319 11.16 16.41L17.16 10.41C17.5819 9.98865 18.1537 9.75198 18.75 9.75198C19.3463 9.75198 19.9181 9.98865 20.34 10.41ZM27.66 10.41C27.2386 10.8319 27.002 11.4037 27.002 12C27.002 12.5963 27.2386 13.1681 27.66 13.59L32.07 18L27.66 22.41C27.2626 22.8365 27.0462 23.4007 27.0565 23.9836C27.0668 24.5665 27.3029 25.1226 27.7151 25.5349C28.1274 25.9471 28.6835 26.1832 29.2664 26.1935C29.8493 26.2038 30.4135 25.9874 30.84 25.59L36.84 19.59C37.2613 19.1681 37.498 18.5963 37.498 18C37.498 17.4037 37.2613 16.8319 36.84 16.41L30.84 10.41C30.4181 9.98865 29.8463 9.75198 29.25 9.75198C28.6537 9.75198 28.0819 9.98865 27.66 10.41Z" fill="black"/>
</svg>
