<svg width="261" height="445" viewBox="0 0 261 445" fill="none" xmlns="http://www.w3.org/2000/svg">
<g opacity="0.4" filter="url(#filter0_f)">
<path fill-rule="evenodd" clip-rule="evenodd" d="M52.2256 432.674H209.946C220.866 432.674 233.87 433.228 233.87 433.912C233.87 434.596 219.983 435.15 209.946 435.15H52.2256C41.147 435.15 27.0068 434.596 27.0068 433.912C27.0068 433.228 40.9261 432.674 52.2256 432.674Z" fill="url(#paint0_linear)"/>
</g>
<g opacity="0.1" filter="url(#filter1_f)">
<path fill-rule="evenodd" clip-rule="evenodd" d="M38.6839 432.023H223.83C233.244 432.023 251.937 432.902 251.937 433.977C251.937 435.052 234.69 435.931 220.166 435.931H38.6839C26.547 435.931 9.09814 435.052 9.09814 433.977C9.09814 432.902 26.0091 432.023 38.6839 432.023Z" fill="url(#paint1_linear)"/>
</g>
<path fill-rule="evenodd" clip-rule="evenodd" d="M23.2031 75.2352V59.7638L23.7639 59.2427H25.2516V75.7564H23.7435L23.2031 75.2352ZM237.347 100.413H238.75L240.153 101.13V150.28L238.75 150.964H237.347V100.413ZM23.0005 90.5112V121.259L24.4034 121.943H25.0885V89.7946H24.3707L23.0005 90.5112ZM23.0005 161.061V130.313L24.3707 129.597H25.0885V161.745H24.4034L23.0005 161.061Z" fill="#C0C0C0"/>
<mask id="mask0" mask-type="alpha" maskUnits="userSpaceOnUse" x="23" y="59" width="218" height="103">
<path fill-rule="evenodd" clip-rule="evenodd" d="M23.2031 75.2352V59.7638L23.7639 59.2427H25.2516V75.7564H23.7435L23.2031 75.2352ZM237.347 100.413H238.75L240.153 101.13V150.28L238.75 150.964H237.347V100.413ZM23.0005 90.5112V121.259L24.4034 121.943H25.0885V89.7946H24.3707L23.0005 90.5112ZM23.0005 161.061V130.313L24.3707 129.597H25.0885V161.745H24.4034L23.0005 161.061Z" fill="white"/>
</mask>
<g mask="url(#mask0)">
<g opacity="0.3" filter="url(#filter2_f)">
<path fill-rule="evenodd" clip-rule="evenodd" d="M22.1196 91.9118L25.0885 90.1855V86.5375L22.1196 88.2638V91.9118ZM22.1196 123.506L25.0885 125.232V121.584L22.1196 119.858V123.506ZM22.1196 131.682L25.0885 129.955V126.307L22.1196 128.034V131.682ZM22.1196 163.308L25.0885 165.035V161.387L22.1196 159.66V163.308ZM237.869 96.8627V100.511L240.838 102.237V98.589L237.869 96.8627ZM237.869 154.351L240.838 152.625V148.977L237.869 150.703V154.351ZM22.6416 60.1221H25.6104V56.4741H22.6416V60.1221ZM22.6416 78.6878H25.6104V75.0398H22.6416V78.6878Z" fill="black"/>
</g>
<path opacity="0.9" fill-rule="evenodd" clip-rule="evenodd" d="M24.2076 61.4013V73.412C24.2076 76.315 23.1579 76.1472 22.9654 76.1165C22.9459 76.1134 22.9352 76.1117 22.9352 76.1147V58.5587C22.9352 58.5587 24.2076 58.6327 24.2076 61.4013ZM21.6302 88.1661H22.3153C23.4572 88.1661 24.4033 90.5112 24.4033 91.6512V120.281C24.4033 121.421 23.4572 123.767 22.3153 123.767H21.6302V88.1661ZM22.3153 127.838H21.5649V163.341H22.3153C23.4572 163.341 24.4033 160.996 24.4033 159.856V131.291C24.4033 130.151 23.4572 127.838 22.3153 127.838ZM238.75 102.139C238.75 100.999 239.696 98.6541 240.838 98.6541H241.719V152.918H240.838C239.696 152.918 238.75 150.573 238.75 149.433V102.139Z" fill="#EFEFEF"/>
<mask id="mask1" mask-type="alpha" maskUnits="userSpaceOnUse" x="21" y="58" width="221" height="106">
<path fill-rule="evenodd" clip-rule="evenodd" d="M24.2076 61.4013V73.412C24.2076 76.315 23.1579 76.1472 22.9654 76.1165C22.9459 76.1134 22.9352 76.1117 22.9352 76.1147V58.5587C22.9352 58.5587 24.2076 58.6327 24.2076 61.4013ZM21.6302 88.1661H22.3153C23.4572 88.1661 24.4033 90.5112 24.4033 91.6512V120.281C24.4033 121.421 23.4572 123.767 22.3153 123.767H21.6302V88.1661ZM22.3153 127.838H21.5649V163.341H22.3153C23.4572 163.341 24.4033 160.996 24.4033 159.856V131.291C24.4033 130.151 23.4572 127.838 22.3153 127.838ZM238.75 102.139C238.75 100.999 239.696 98.6541 240.838 98.6541H241.719V152.918H240.838C239.696 152.918 238.75 150.573 238.75 149.433V102.139Z" fill="white"/>
</mask>
<g mask="url(#mask1)">
<g opacity="0.7" filter="url(#filter3_f)">
<path fill-rule="evenodd" clip-rule="evenodd" d="M22.1196 59.8615L25.0885 58.3632V55.0735L22.1196 56.5718V59.8615ZM22.1196 78.2644L25.0885 79.7627V76.4729L22.1196 74.9746V78.2644ZM22.1196 90.8695L25.0885 89.1432V85.4952L22.1196 87.2215V90.8695ZM22.1196 124.386L24.3381 125.688L22.1196 126.991V130.639L25.0885 128.913V122.496L22.1196 120.77V124.386ZM22.1196 164.155L25.0885 165.882V162.234L22.1196 160.507V164.155ZM237.706 96.8626V100.511L240.674 102.237V98.5889L237.706 96.8626ZM237.706 154.514L240.674 152.788V149.14L237.706 150.866V154.514Z" fill="black"/>
</g>
<g opacity="0.2" filter="url(#filter4_f)">
<path fill-rule="evenodd" clip-rule="evenodd" d="M22.1196 91.9118L25.0885 90.1855V86.5375L22.1196 88.2638V91.9118ZM22.1196 123.506L25.0885 125.232V121.584L22.1196 119.858V123.506ZM22.1196 131.682L25.0885 129.955V126.307L22.1196 128.034V131.682ZM22.1196 163.308L25.0885 165.035V161.387L22.1196 159.66V163.308ZM237.869 96.8627V100.511L240.838 102.237V98.589L237.869 96.8627ZM237.869 154.351L240.838 152.625V148.977L237.869 150.703V154.351ZM22.1196 60.513L25.0885 58.7867V55.1387L22.1196 56.865V60.513ZM22.1196 78.069L25.0885 80.0884V76.4404L22.1196 74.421V78.069Z" fill="black"/>
</g>
<g filter="url(#filter5_f)">
<path fill-rule="evenodd" clip-rule="evenodd" d="M22.1196 91.7163L25.0885 89.99V86.342L22.1196 88.0683V91.7163ZM22.1196 123.767L25.0885 125.493V121.845L22.1196 120.119V123.767ZM22.1196 131.421L25.0885 129.695V126.047L22.1196 127.773V131.421ZM22.1196 163.569L25.0885 165.295V161.647L22.1196 159.921V163.569ZM237.869 97.0254V100.445L240.838 102.172V98.7517L237.869 97.0254ZM237.869 154.351L240.838 152.625V148.977L237.869 150.703V154.351ZM22.1196 78.0038L25.0885 79.9255V76.2775L22.1196 74.3558V78.0038ZM22.1196 60.4477L25.0885 59.0472V55.3992L22.1196 56.7997V60.4477Z" fill="white"/>
</g>
</g>
<path fill-rule="evenodd" clip-rule="evenodd" d="M23.4897 60.8212V73.8599C23.4897 75.2849 23.0582 75.3633 23.0908 75.3307L22.1847 75.2027V59.7313L23.0144 59.5183C23.0144 59.5183 23.4897 59.9051 23.4897 60.8212ZM20.684 88.785L21.5412 88.9039C23.0705 89.423 23.5293 91.8913 23.5293 93.3722V118.396C23.5293 119.46 23.4324 121.898 21.8419 122.228L20.684 123.18V88.785ZM21.3189 128.613H20.438V162.81H21.3189C22.4607 162.81 23.4069 160.53 23.4069 159.39V132C23.4069 130.893 22.4934 128.613 21.3189 128.613ZM239.591 104.116C239.591 102.889 239.642 100.518 241.48 99.2079H242.578V152.039L241.123 151.085C239.856 151.029 239.591 149.354 239.591 147.805V104.116Z" fill="#D0D0D0"/>
<mask id="mask2" mask-type="alpha" maskUnits="userSpaceOnUse" x="20" y="59" width="223" height="104">
<path fill-rule="evenodd" clip-rule="evenodd" d="M23.4897 60.8212V73.8599C23.4897 75.2849 23.0582 75.3633 23.0908 75.3307L22.1847 75.2027V59.7313L23.0144 59.5183C23.0144 59.5183 23.4897 59.9051 23.4897 60.8212ZM20.684 88.785L21.5412 88.9039C23.0705 89.423 23.5293 91.8913 23.5293 93.3722V118.396C23.5293 119.46 23.4324 121.898 21.8419 122.228L20.684 123.18V88.785ZM21.3189 128.613H20.438V162.81H21.3189C22.4607 162.81 23.4069 160.53 23.4069 159.39V132C23.4069 130.893 22.4934 128.613 21.3189 128.613ZM239.591 104.116C239.591 102.889 239.642 100.518 241.48 99.2079H242.578V152.039L241.123 151.085C239.856 151.029 239.591 149.354 239.591 147.805V104.116Z" fill="white"/>
</mask>
<g mask="url(#mask2)">
<g opacity="0.4" filter="url(#filter6_f)">
<rect x="20.2271" y="59.1124" width="2.39056" height="17.5886" fill="black"/>
</g>
<g opacity="0.4" filter="url(#filter7_f)">
<rect x="19.2485" y="87.7374" width="3.36931" height="76.8651" fill="black"/>
</g>
<g opacity="0.4" filter="url(#filter8_f)">
<rect x="241.078" y="87.7374" width="3.36932" height="76.8651" fill="black"/>
</g>
</g>
<path opacity="0.5" fill-rule="evenodd" clip-rule="evenodd" d="M22.7849 129.862C22.7849 129.862 23.4043 130.987 23.4043 132.249L23.4374 158.26C23.4374 159.4 23.3069 161.745 22.165 161.745H22.2303C23.5679 161.712 23.6332 159.4 23.6332 158.26L23.6001 132.275C23.5641 131.125 23.3559 130.646 22.984 129.888C22.927 129.772 22.7849 129.862 22.7849 129.862ZM22.6415 89.9808C23.3332 90.6373 23.5223 92.5539 23.5223 93.5636V118.295C23.5223 119.435 23.3918 121.78 22.25 121.78H22.3152C23.6528 121.747 23.7181 119.435 23.7181 118.295V93.5636C23.6876 92.5904 23.473 90.6208 22.8149 89.9808C22.7642 89.9315 22.6649 89.8936 22.6415 89.9808ZM239.751 147.479V103.963C239.751 102.954 239.947 100.967 240.567 100.413C239.751 100.869 239.588 102.954 239.588 103.963V147.479C239.588 148.619 239.621 150.931 240.926 150.964H240.991C239.882 150.964 239.751 148.651 239.751 147.479ZM240.926 100.25C240.795 100.25 240.698 100.315 240.6 100.413C240.698 100.348 240.795 100.315 240.926 100.315V100.25ZM23.1634 75.3205C23.209 75.3152 23.1836 75.52 23.2233 75.4885C23.6719 75.1322 23.6923 73.9668 23.6923 73.9668V60.9433C23.6923 60.9433 23.6719 60.0425 23.2896 59.5234C23.213 59.4193 23.1688 59.6623 23.0857 59.5539C23.468 60.0628 23.4966 60.9433 23.4966 60.9433V73.9668C23.4966 73.9668 23.4833 74.9083 23.1634 75.3205Z" fill="white"/>
<g style="mix-blend-mode:soft-light" opacity="0.6">
<rect x="-129.521" y="-43.1619" width="522" height="521.143" fill="#E4E4E4"/>
</g>
</g>
<path fill-rule="evenodd" clip-rule="evenodd" d="M205.179 434.628H143.517C142.8 434.172 139.602 434.107 138.95 434.107H124.236C123.551 434.107 120.354 434.172 119.668 434.628H58.0072C37.2903 434.628 24.0771 421.763 24.0771 398.832V162.592C24.5013 161.387 24.7623 160.41 24.7623 159.791V131.323C24.7623 130.704 24.5013 129.76 24.0771 128.978V122.952C24.5013 121.747 24.7623 120.77 24.7623 120.151V91.6838C24.7623 91.065 24.5013 90.1204 24.0771 89.3387V76.2775C24.5013 75.2027 24.5991 74.3232 24.5991 73.737V61.0992C24.5991 60.513 24.5013 59.6335 24.0771 58.9495V37.2895C24.0771 13.8381 36.6051 0.288391 61.3023 0.288391H201.883C226.581 0.288391 239.109 13.8381 239.109 37.2895V99.1427C238.684 100.706 238.423 101.683 238.423 102.302V149.172C238.423 149.791 238.684 150.736 239.109 151.518V398.832C239.109 421.795 225.863 434.628 205.179 434.628Z" fill="#D0D0D0"/>
<mask id="mask3" mask-type="alpha" maskUnits="userSpaceOnUse" x="24" y="0" width="216" height="435">
<path fill-rule="evenodd" clip-rule="evenodd" d="M205.179 434.628H143.517C142.8 434.172 139.602 434.107 138.95 434.107H124.236C123.551 434.107 120.354 434.172 119.668 434.628H58.0072C37.2903 434.628 24.0771 421.763 24.0771 398.832V162.592C24.5013 161.387 24.7623 160.41 24.7623 159.791V131.323C24.7623 130.704 24.5013 129.76 24.0771 128.978V122.952C24.5013 121.747 24.7623 120.77 24.7623 120.151V91.6838C24.7623 91.065 24.5013 90.1204 24.0771 89.3387V76.2775C24.5013 75.2027 24.5991 74.3232 24.5991 73.737V61.0992C24.5991 60.513 24.5013 59.6335 24.0771 58.9495V37.2895C24.0771 13.8381 36.6051 0.288391 61.3023 0.288391H201.883C226.581 0.288391 239.109 13.8381 239.109 37.2895V99.1427C238.684 100.706 238.423 101.683 238.423 102.302V149.172C238.423 149.791 238.684 150.736 239.109 151.518V398.832C239.109 421.795 225.863 434.628 205.179 434.628Z" fill="white"/>
</mask>
<g mask="url(#mask3)">
<g style="mix-blend-mode:hard-light" opacity="0.4">
<rect x="-129.521" y="-43.1619" width="522" height="521.143" fill="#E4E4E4"/>
</g>
<g opacity="0.49983" filter="url(#filter9_f)">
<path d="M210.366 -1.47046H53.4396C36.0505 -1.47046 21.9238 12.6004 21.9238 29.9935V401.373C21.9238 416.421 32.527 429.873 46.6862 433.163C33.7015 429.547 24.2402 418.18 24.2402 402.676V35.9215C24.2402 12.6655 38.3668 -1.01446 55.7886 -1.01446H207.266C224.688 -1.01446 238.815 12.3398 238.815 34.7164V402.708C238.815 419.548 228.603 430.655 214.868 433.619C230.137 431.274 241.849 417.235 241.849 401.373V29.9935C241.882 12.6004 227.788 -1.47046 210.366 -1.47046Z" fill="black"/>
</g>
<g filter="url(#filter10_f)">
<path fill-rule="evenodd" clip-rule="evenodd" d="M233.889 35.6284C233.889 17.2256 223.449 5.565 202.928 5.565H60.2258C39.7046 5.565 29.2646 17.193 29.2646 35.6284L29.2646 401.438C29.2646 424.368 43.7175 432.348 59.8995 432.348H203.254C219.436 432.348 233.889 424.368 233.889 401.438V35.6284Z" fill="#EDEDED"/>
</g>
<g opacity="0.7" filter="url(#filter11_f)">
<path fill-rule="evenodd" clip-rule="evenodd" d="M233.889 35.6284C233.889 17.2256 223.449 5.565 202.928 5.565H60.2258C39.7046 5.565 29.2646 17.193 29.2646 35.6284V398.507C29.2646 421.437 43.7175 429.417 59.8995 429.417H203.254C219.436 429.417 233.889 421.437 233.889 398.507V35.6284Z" fill="white"/>
</g>
<g filter="url(#filter12_f)">
<path fill-rule="evenodd" clip-rule="evenodd" d="M219.599 427.56C226.711 422.642 231.278 414.662 231.278 404.565V34.4232C231.278 19.1147 224.982 9.96209 215.651 5.66266C227.624 10.0924 236.139 21.6227 236.139 35.2049V398.93C236.139 410.949 229.451 421.925 219.599 427.56ZM31.3523 35.6935V404.565C31.3523 412.512 34.1581 419.092 38.7908 423.945C31.7764 417.854 27.0132 408.734 27.0132 398.93V35.205C27.0132 22.8604 34.4191 12.177 44.6959 7.03069C36.6376 11.9164 31.3523 21.1015 31.3523 35.6935Z" fill="white"/>
</g>
<g filter="url(#filter13_f)">
<path fill-rule="evenodd" clip-rule="evenodd" d="M219.599 427.56C226.711 422.642 231.278 414.662 231.278 404.565V34.4232C231.278 19.1147 224.982 9.96209 215.651 5.66266C227.624 10.0924 236.139 21.6227 236.139 35.2049V398.93C236.139 410.949 229.451 421.925 219.599 427.56ZM31.3523 35.6935V404.565C31.3523 412.512 34.1581 419.092 38.7908 423.945C31.7764 417.854 27.0132 408.734 27.0132 398.93V35.205C27.0132 22.8604 34.4191 12.177 44.6959 7.03069C36.6376 11.9164 31.3523 21.1015 31.3523 35.6935Z" fill="white"/>
</g>
<g filter="url(#filter14_f)">
<path fill-rule="evenodd" clip-rule="evenodd" d="M204.494 9.11522H58.6598C41.7927 9.11522 31.5811 15.0758 28.2207 27.7135C29.7215 11.5581 40.1941 1.55865 59.3776 1.55865H203.776C222.959 1.55865 233.432 11.5581 234.933 27.7135C231.572 15.1084 221.361 9.11522 204.494 9.11522Z" fill="white"/>
</g>
<g opacity="0.2" filter="url(#filter15_f)">
<path d="M52.5458 434.238H210.574C225.823 434.238 238.62 424.238 242.281 410.721V414.434C242.281 431.795 227.771 445.898 209.835 445.898H53.2847C35.3827 445.898 20.8394 431.827 20.8394 414.434V410.721C24.534 424.238 37.3307 434.238 52.5458 434.238Z" fill="black"/>
</g>
<g opacity="0.1" filter="url(#filter16_f)">
<path fill-rule="evenodd" clip-rule="evenodd" d="M52.548 434.14H210.605C221.628 434.14 231.386 428.928 237.314 420.883C231.819 430.557 221.295 437.071 209.206 437.071H53.9467C41.8577 437.071 31.3006 430.524 25.8389 420.883C31.7668 428.928 41.5246 434.14 52.548 434.14Z" fill="#808080"/>
</g>
<g opacity="0.2" filter="url(#filter17_f)">
<path fill-rule="evenodd" clip-rule="evenodd" d="M55.2665 434.889H207.886C223.644 434.889 236.694 423.424 239.108 408.441V413.783C239.108 431.143 225.014 445.247 207.593 445.247H55.5275C38.1383 445.247 24.0117 431.176 24.0117 413.783V408.441C26.426 423.424 39.5086 434.889 55.2665 434.889Z" fill="black"/>
</g>
<g opacity="0.9" filter="url(#filter18_f)">
<path fill-rule="evenodd" clip-rule="evenodd" d="M214.248 434.01C228.761 430.833 238.587 419.188 238.587 398.627V36.8811C238.587 9.27684 219.952 0.581541 202.862 0.581541H59.8452C41.2898 0.581541 24.4362 10.376 24.4362 37.2476V397.162C24.4362 419.718 36.029 431.24 47.9914 433.716C20.8584 440.93 20.2275 416.844 20.2275 401.308V29.9935C20.2275 12.633 36.0833 -1.47046 53.4724 -1.47046H210.399C227.788 -1.47046 243.644 12.6004 243.644 29.9935V401.373C243.611 417.431 236.917 437.428 214.248 434.01Z" fill="white"/>
</g>
</g>
<mask id="mask4" mask-type="alpha" maskUnits="userSpaceOnUse" x="24" y="0" width="216" height="435">
<path fill-rule="evenodd" clip-rule="evenodd" d="M235.27 398.507C235.27 409.597 231.998 418.045 225.544 423.617C220.089 428.328 212.381 430.818 203.254 430.818H59.8775C50.7504 430.818 43.0424 428.328 37.5868 423.617C31.1336 418.045 27.8616 409.597 27.8616 398.507V35.6177C27.8616 26.0241 30.6938 18.1017 36.0518 12.7076C41.6754 7.046 49.8088 4.17516 60.2256 4.17516H202.906C213.322 4.17516 221.456 7.046 227.079 12.7076C232.437 18.1017 235.27 26.0241 235.27 35.6177V398.507ZM61.2697 0.353577C36.5618 0.353577 24.0801 13.9033 24.0801 37.3547V398.854C24.0801 421.785 37.2577 434.64 57.9638 434.64H205.168C225.874 434.64 239.098 421.785 239.098 398.854V37.3547C239.098 13.9033 226.57 0.353577 201.862 0.353577H61.2697Z" fill="white"/>
</mask>
<g mask="url(#mask4)">
<path fill-rule="evenodd" clip-rule="evenodd" d="M23.6855 45.009V42.045H239.435V45.009H23.6855ZM239.435 393.133H23.6855V390.169H239.435V393.133Z" fill="#989899" fill-opacity="0.6"/>
<mask id="mask5" mask-type="alpha" maskUnits="userSpaceOnUse" x="23" y="42" width="217" height="352">
<path fill-rule="evenodd" clip-rule="evenodd" d="M23.6855 45.009V42.045H239.435V45.009H23.6855ZM239.435 393.133H23.6855V390.169H239.435V393.133Z" fill="white"/>
</mask>
<g mask="url(#mask5)">
<g opacity="0.8" filter="url(#filter19_f)">
<path fill-rule="evenodd" clip-rule="evenodd" d="M231.801 47.9078H236.433V39.081H231.801V47.9078ZM238.913 39.1136V47.9404H243.513V39.1136H238.913ZM231.801 396.031H236.433V387.204H231.801V396.031ZM238.913 396.031H243.513V387.204H238.913V396.031ZM19.8686 47.9078H24.4687V39.081H19.8359V47.9078H19.8686ZM26.6219 47.9078H31.2547V39.081H26.6219V47.9078ZM19.8686 396.031H24.4687V387.204H19.8359V396.031H19.8686ZM26.6219 396.031H31.2547V387.204H26.6219V396.031Z" fill="white"/>
</g>
<g style="mix-blend-mode:hard-light" opacity="0.15">
<rect x="-129.521" y="-43.1619" width="522" height="521.143" fill="#E4E4E4"/>
</g>
</g>
</g>
<path opacity="0.1" fill-rule="evenodd" clip-rule="evenodd" d="M227.331 12.4701C221.654 6.73754 213.433 3.83868 202.895 3.83868H60.2258C49.7206 3.83868 41.4991 6.73754 35.7897 12.4701C30.3739 17.9421 27.5029 25.9221 27.5029 35.6284V398.507C27.5029 409.711 30.8307 418.245 37.3557 423.88C42.8693 428.635 50.6667 431.176 59.8669 431.176H203.254C212.454 431.176 220.251 428.668 225.765 423.88C232.29 418.245 235.618 409.711 235.618 398.507V35.6284C235.618 25.9221 232.747 17.9095 227.331 12.4701ZM60.2259 5.56494H202.895C223.449 5.56494 233.889 17.1929 233.889 35.6284V398.507C233.889 421.437 219.436 429.417 203.254 429.417H59.8996C43.7176 429.417 29.2647 421.437 29.2647 398.507V35.6284C29.2647 17.1929 39.7047 5.56494 60.2259 5.56494ZM224.395 422.316C230.463 417.072 233.53 409.06 233.53 398.507V35.6284C233.53 26.3781 230.92 19.0821 225.83 13.9358C220.545 8.62667 212.846 5.92324 202.895 5.92324H60.2259C50.3079 5.92324 42.5757 8.62667 37.2905 13.9358C32.1684 19.0821 29.591 26.3781 29.591 35.6284V398.507C29.591 409.092 32.6577 417.105 38.726 422.316C43.8481 426.746 51.1561 429.091 59.867 429.091H203.254C211.932 429.091 219.273 426.746 224.395 422.316ZM225.537 423.619C231.996 418.05 235.259 409.581 235.259 398.507V35.6284C235.259 26.0524 232.42 18.1376 227.07 12.7307C221.458 7.06327 213.302 4.19699 202.895 4.19699H60.2257C49.8184 4.19699 41.6621 7.06327 36.0506 12.7307C30.7001 18.105 27.8617 26.0198 27.8617 35.6284V398.507C27.8617 409.614 31.1242 418.05 37.584 423.619C43.0324 428.342 50.7319 430.818 59.8669 430.818H203.254C212.389 430.818 220.088 428.342 225.537 423.619Z" fill="black"/>
<path d="M142.962 15.6296H120.158C119.146 15.6296 118.331 16.4439 118.331 17.4536C118.331 18.4633 119.146 19.2776 120.158 19.2776H142.962C143.974 19.2776 144.789 18.4633 144.789 17.4536C144.789 16.4439 143.974 15.6296 142.962 15.6296Z" fill="#DDDDDD"/>
<mask id="mask6" mask-type="alpha" maskUnits="userSpaceOnUse" x="118" y="15" width="27" height="5">
<path d="M142.962 15.6296H120.158C119.146 15.6296 118.331 16.4439 118.331 17.4536C118.331 18.4633 119.146 19.2776 120.158 19.2776H142.962C143.974 19.2776 144.789 18.4633 144.789 17.4536C144.789 16.4439 143.974 15.6296 142.962 15.6296Z" fill="white"/>
</mask>
<g mask="url(#mask6)">
<path opacity="0.503748" fill-rule="evenodd" clip-rule="evenodd" d="M115.474 19.5516L119.27 15.2599L119.438 15.4498L115.642 19.7415L115.474 19.5516ZM120.211 15.2599L116.415 19.5516L116.583 19.7415L120.379 15.4498L120.211 15.2599ZM117.322 19.5516L121.118 15.2599L121.286 15.4498L117.49 19.7415L117.322 19.5516ZM122.025 15.2599L118.229 19.5516L118.397 19.7415L122.193 15.4498L122.025 15.2599ZM119.136 19.5516L122.932 15.2599L123.1 15.4498L119.304 19.7415L119.136 19.5516ZM123.839 15.2599L120.043 19.5516L120.211 19.7415L124.007 15.4498L123.839 15.2599ZM120.984 19.5516L124.78 15.2599L124.948 15.4498L121.152 19.7415L120.984 19.5516ZM125.687 15.2599L121.891 19.5516L122.059 19.7415L125.855 15.4498L125.687 15.2599ZM122.798 19.5516L126.594 15.2599L126.762 15.4498L122.966 19.7415L122.798 19.5516ZM127.501 15.2599L123.705 19.5516L123.873 19.7415L127.669 15.4498L127.501 15.2599ZM124.646 19.5516L128.442 15.2599L128.61 15.4498L124.814 19.7415L124.646 19.5516ZM129.349 15.2599L125.553 19.5516L125.721 19.7415L129.517 15.4498L129.349 15.2599ZM126.46 19.5516L130.256 15.2599L130.424 15.4498L126.628 19.7415L126.46 19.5516ZM131.163 15.2599L127.367 19.5516L127.535 19.7415L131.331 15.4498L131.163 15.2599ZM128.274 19.5516L132.07 15.2599L132.238 15.4498L128.442 19.7415L128.274 19.5516ZM133.011 15.2599L129.215 19.5516L129.383 19.7415L133.179 15.4498L133.011 15.2599ZM130.122 19.5516L133.918 15.2599L134.086 15.4498L130.29 19.7415L130.122 19.5516ZM134.825 15.2599L131.029 19.5516L131.197 19.7415L134.993 15.4498L134.825 15.2599ZM131.936 19.5516L135.732 15.2599L135.9 15.4498L132.104 19.7415L131.936 19.5516ZM136.673 15.2599L132.876 19.5516L133.044 19.7415L136.841 15.4498L136.673 15.2599ZM133.784 19.5516L137.58 15.2599L137.748 15.4498L133.952 19.7415L133.784 19.5516ZM138.487 15.2599L134.691 19.5516L134.859 19.7415L138.655 15.4498L138.487 15.2599ZM135.598 19.5516L139.394 15.2599L139.562 15.4498L135.766 19.7415L135.598 19.5516ZM140.301 15.2599L136.505 19.5516L136.673 19.7415L140.469 15.4498L140.301 15.2599ZM137.445 19.5516L141.242 15.2599L141.41 15.4498L137.613 19.7415L137.445 19.5516ZM142.149 15.2599L138.353 19.5516L138.521 19.7415L142.317 15.4498L142.149 15.2599ZM139.26 19.5516L143.056 15.2599L143.224 15.4498L139.428 19.7415L139.26 19.5516ZM143.963 15.2599L140.167 19.5516L140.335 19.7415L144.131 15.4498L143.963 15.2599ZM141.107 19.5516L144.904 15.2599L145.072 15.4498L141.275 19.7415L141.107 19.5516ZM145.811 15.2599L142.014 19.5516L142.182 19.7415L145.979 15.4498L145.811 15.2599ZM146.718 15.2599L142.921 19.5516L143.089 19.7415L146.886 15.4498L146.718 15.2599Z" fill="white"/>
<path opacity="0.6" fill-rule="evenodd" clip-rule="evenodd" d="M119.27 19.7036L115.474 15.4119L115.642 15.2599L119.438 19.5137L119.27 19.7036ZM116.381 15.4119L120.177 19.7036L120.345 19.5137L116.549 15.2599L116.381 15.4119ZM121.118 19.7036L117.322 15.4119L117.456 15.2599L121.286 19.5137L121.118 19.7036ZM118.229 15.4119L122.025 19.7036L122.193 19.5137L118.397 15.2599L118.229 15.4119ZM122.932 19.7036L119.136 15.4119L119.304 15.2599L123.1 19.5137L122.932 19.7036ZM120.043 15.4119L123.839 19.7036L124.007 19.5137L120.211 15.2599L120.043 15.4119ZM124.78 19.7036L120.984 15.4119L121.118 15.2599L124.948 19.5137L124.78 19.7036ZM121.891 15.4119L125.687 19.7036L125.855 19.5137L122.059 15.2599L121.891 15.4119ZM126.594 19.7036L122.798 15.4119L122.966 15.2599L126.762 19.5137L126.594 19.7036ZM123.705 15.4119L127.501 19.7036L127.669 19.5137L123.873 15.2599L123.705 15.4119ZM128.408 19.7036L124.612 15.4119L124.78 15.2599L128.576 19.5137L128.408 19.7036ZM125.553 15.4119L129.349 19.7036L129.517 19.5137L125.687 15.2599L125.553 15.4119ZM130.256 19.7036L126.46 15.4119L126.628 15.2599L130.424 19.5137L130.256 19.7036ZM127.367 15.4119L131.163 19.7036L131.331 19.5137L127.535 15.2599L127.367 15.4119ZM132.07 19.7036L128.274 15.4119L128.442 15.2599L132.238 19.5137L132.07 19.7036ZM129.215 15.4119L133.011 19.7036L133.179 19.5137L129.349 15.2599L129.215 15.4119ZM133.918 19.7036L130.122 15.4119L130.256 15.2599L134.086 19.5137L133.918 19.7036ZM131.029 15.4119L134.825 19.7036L134.993 19.5137L131.197 15.2599L131.029 15.4119ZM135.732 19.7036L131.936 15.4119L132.104 15.2599L135.9 19.5137L135.732 19.7036ZM132.843 15.4119L136.639 19.7036L136.807 19.5137L133.011 15.2599L132.843 15.4119ZM137.58 19.7036L133.784 15.4119L133.918 15.2599L137.748 19.5137L137.58 19.7036ZM134.691 15.4119L138.487 19.7036L138.655 19.5137L134.859 15.2599L134.691 15.4119ZM139.394 19.7036L135.598 15.4119L135.766 15.2599L139.562 19.5137L139.394 19.7036ZM136.505 15.4119L140.301 19.7036L140.469 19.5137L136.673 15.2599L136.505 15.4119ZM141.208 19.7036L137.412 15.4119L137.58 15.2599L141.376 19.5137L141.208 19.7036ZM138.353 15.4119L142.149 19.7036L142.317 19.5137L138.487 15.2599L138.353 15.4119ZM143.056 19.7036L139.26 15.4119L139.428 15.2599L143.224 19.5137L143.056 19.7036ZM140.167 15.4119L143.963 19.7036L144.131 19.5137L140.335 15.2599L140.167 15.4119ZM144.87 19.7036L141.074 15.4119L141.242 15.2599L145.038 19.5137L144.87 19.7036ZM142.014 15.4119L145.811 19.7036L145.979 19.5137L142.149 15.2599L142.014 15.4119ZM143.089 15.2599L142.921 15.4498L146.718 19.7415L146.886 19.5516L143.089 15.2599Z" fill="white"/>
</g>
<mask id="mask7" mask-type="alpha" maskUnits="userSpaceOnUse" x="117" y="15" width="29" height="5">
<path fill-rule="evenodd" clip-rule="evenodd" d="M120.158 15.3038H142.962C144.17 15.3038 145.148 16.281 145.148 17.4861C145.148 18.6913 144.17 19.6684 142.962 19.6684H120.158C118.95 19.6684 117.972 18.6913 117.972 17.4861C117.972 16.281 118.95 15.3038 120.158 15.3038ZM120.157 19.2775H142.962C143.974 19.2775 144.789 18.4633 144.789 17.4535C144.789 16.4438 143.974 15.6295 142.962 15.6295H120.157C119.146 15.6295 118.33 16.4438 118.33 17.4535C118.33 18.4633 119.146 19.2775 120.157 19.2775Z" fill="white"/>
</mask>
<g mask="url(#mask7)">
<g opacity="0.799366" filter="url(#filter20_f)">
<path fill-rule="evenodd" clip-rule="evenodd" d="M117.515 17.649H145.376V21.5901H117.515V17.649Z" fill="white"/>
</g>
<g filter="url(#filter21_f)">
<path d="M142.963 15.6295H120.158C119.016 15.6295 118.07 16.509 118.004 17.6164C118.004 17.5512 118.004 17.4861 118.004 17.4535C118.004 16.2484 118.983 15.2712 120.19 15.2712H142.995C144.202 15.2712 145.181 16.2484 145.181 17.4535C145.181 17.5187 145.181 17.5838 145.181 17.6164C145.051 16.509 144.104 15.6295 142.963 15.6295Z" fill="black"/>
</g>
<g style="mix-blend-mode:soft-light" opacity="0.15">
<rect x="-163.125" y="-42.5104" width="522" height="521.143" fill="#E4E4E4"/>
</g>
</g>
<path fill-rule="evenodd" clip-rule="evenodd" d="M120.158 19.6358H142.962C144.137 19.6358 145.083 18.7238 145.148 17.5513C145.148 17.5838 145.148 17.6164 145.148 17.649C145.148 18.8541 144.17 19.8313 142.962 19.8313H120.158C118.95 19.8313 117.972 18.8541 117.972 17.649C117.972 17.6164 117.972 17.5838 117.972 17.5513C118.037 18.7238 118.983 19.6358 120.158 19.6358Z" fill="white"/>
<path opacity="0.9" fill-rule="evenodd" clip-rule="evenodd" d="M142.962 15.3038H120.158C118.983 15.3038 118.037 16.2158 117.972 17.3884C117.972 17.3558 117.972 17.3233 117.972 17.2907C117.972 16.0855 118.95 15.1084 120.158 15.1084H142.962C144.17 15.1084 145.148 16.0855 145.148 17.2907C145.148 17.3233 145.148 17.3558 145.148 17.3884C145.083 16.2158 144.137 15.3038 142.962 15.3038Z" fill="white"/>
<g opacity="0.5" filter="url(#filter22_i)">
<path d="M142.962 15.6296H120.158C119.146 15.6296 118.331 16.4439 118.331 17.4536C118.331 18.4633 119.146 19.2776 120.158 19.2776H142.962C143.974 19.2776 144.789 18.4633 144.789 17.4536C144.789 16.4439 143.974 15.6296 142.962 15.6296Z" fill="black" fill-opacity="0.01"/>
</g>
<mask id="mask8" mask-type="alpha" maskUnits="userSpaceOnUse" x="118" y="15" width="27" height="5">
<path d="M142.962 15.6296H120.158C119.146 15.6296 118.331 16.4439 118.331 17.4536C118.331 18.4633 119.146 19.2776 120.158 19.2776H142.962C143.974 19.2776 144.789 18.4633 144.789 17.4536C144.789 16.4439 143.974 15.6296 142.962 15.6296Z" fill="white"/>
</mask>
<g mask="url(#mask8)">
<g style="mix-blend-mode:soft-light" opacity="0.03">
<rect x="-163.125" y="-42.8362" width="522" height="521.143" fill="#E4E4E4"/>
</g>
</g>
<path d="M158.003 17.7141C158.003 19.5381 156.535 21.0038 154.708 21.0038C152.881 21.0038 151.413 19.5381 151.413 17.7141C151.413 15.8901 152.881 14.4244 154.708 14.4244C156.535 14.4244 158.003 15.8901 158.003 17.7141Z" fill="#E2E2E2"/>
<mask id="mask9" mask-type="alpha" maskUnits="userSpaceOnUse" x="151" y="14" width="8" height="8">
<path d="M158.003 17.7141C158.003 19.5381 156.535 21.0038 154.708 21.0038C152.881 21.0038 151.413 19.5381 151.413 17.7141C151.413 15.8901 152.881 14.4244 154.708 14.4244C156.535 14.4244 158.003 15.8901 158.003 17.7141Z" fill="white"/>
</mask>
<g mask="url(#mask9)">
<g filter="url(#filter23_f)">
<path d="M158.101 21.0689C158.101 22.958 156.567 24.5215 154.642 24.5215C152.75 24.5215 151.184 22.9906 151.184 21.0689C151.184 19.1798 152.717 17.6163 154.642 17.6163C156.567 17.6163 158.101 19.1798 158.101 21.0689Z" fill="white"/>
</g>
<g opacity="0.1" filter="url(#filter24_f)">
<path d="M158.101 14.8152C158.101 16.7044 156.567 18.2678 154.642 18.2678C152.75 18.2678 151.184 16.737 151.184 14.8152C151.184 12.9261 152.717 11.3627 154.642 11.3627C156.567 11.3627 158.101 12.9261 158.101 14.8152Z" fill="black"/>
</g>
<g style="mix-blend-mode:soft-light" opacity="0.297101">
<rect x="-129.521" y="-43.1619" width="522" height="521.143" fill="#E4E4E4"/>
</g>
</g>
<g filter="url(#filter25_i)">
<path d="M156.796 17.7141C156.796 18.8541 155.849 19.7987 154.708 19.7987C153.566 19.7987 152.62 18.8541 152.62 17.7141C152.62 16.5741 153.566 15.6296 154.708 15.6296C155.849 15.6296 156.796 16.5741 156.796 17.7141Z" fill="#E0E0E0"/>
</g>
<mask id="mask10" mask-type="alpha" maskUnits="userSpaceOnUse" x="152" y="15" width="5" height="5">
<path d="M156.796 17.7141C156.796 18.8541 155.849 19.7987 154.708 19.7987C153.566 19.7987 152.62 18.8541 152.62 17.7141C152.62 16.5741 153.566 15.6296 154.708 15.6296C155.849 15.6296 156.796 16.5741 156.796 17.7141Z" fill="white"/>
</mask>
<g mask="url(#mask10)">
<g filter="url(#filter26_f)">
<path fill-rule="evenodd" clip-rule="evenodd" d="M153.142 18.1376C152.913 18.4959 153.794 19.4405 154.642 19.4405C155.458 19.4405 156.502 18.5611 156.339 18.1702C156.045 18.3331 155.393 18.6588 154.675 18.6588C153.957 18.6588 153.37 18.3656 153.142 18.1376Z" fill="white"/>
</g>
<g filter="url(#filter27_f)">
<path fill-rule="evenodd" clip-rule="evenodd" d="M154.349 16.6067C154.806 16.6067 155.164 16.965 155.164 17.421C155.164 17.877 154.806 18.2353 154.349 18.2353C153.892 18.2353 153.533 17.877 153.533 17.421C153.533 16.965 153.892 16.6067 154.349 16.6067Z" fill="white"/>
</g>
<g style="mix-blend-mode:soft-light" opacity="0.297101">
<rect x="-128.542" y="-41.859" width="522" height="521.143" fill="#E4E4E4"/>
</g>
</g>
<path d="M226.156 34.7697V34.7682C226.124 27.6704 224.049 22.195 220.247 18.495C216.446 14.7962 210.963 12.9142 204.2 12.9142H187.104C185.326 12.9142 183.874 14.3629 183.874 16.1388V17.3765C183.874 23.2549 179.094 28.0274 173.206 28.0274H89.7513C83.8632 28.0274 79.083 23.2549 79.083 17.3765V16.1388C79.083 14.3629 77.6318 12.9142 75.8531 12.9142H58.7576C51.9942 12.9142 46.5113 14.7961 42.7187 18.4953C38.9248 22.1957 36.8662 27.6716 36.8662 34.7697V401.134C36.8662 408.254 39.4205 413.518 43.5477 417C47.6669 420.475 53.3193 422.143 59.4754 422.143H203.547C209.687 422.143 215.34 420.475 219.462 417C223.594 413.518 226.156 408.254 226.156 401.134V34.7697Z" stroke="black" stroke-opacity="0.1" stroke-width="2"/>
<defs>
<filter id="filter0_f" x="18.852" y="424.519" width="223.173" height="18.7851" filterUnits="userSpaceOnUse" color-interpolation-filters="sRGB">
<feFlood flood-opacity="0" result="BackgroundImageFix"/>
<feBlend mode="normal" in="SourceGraphic" in2="BackgroundImageFix" result="shape"/>
<feGaussianBlur stdDeviation="4.07742" result="effect1_foregroundBlur"/>
</filter>
<filter id="filter1_f" x="0.943299" y="423.868" width="259.148" height="20.2183" filterUnits="userSpaceOnUse" color-interpolation-filters="sRGB">
<feFlood flood-opacity="0" result="BackgroundImageFix"/>
<feBlend mode="normal" in="SourceGraphic" in2="BackgroundImageFix" result="shape"/>
<feGaussianBlur stdDeviation="4.07742" result="effect1_foregroundBlur"/>
</filter>
<filter id="filter2_f" x="5.80994" y="40.1644" width="251.337" height="141.18" filterUnits="userSpaceOnUse" color-interpolation-filters="sRGB">
<feFlood flood-opacity="0" result="BackgroundImageFix"/>
<feBlend mode="normal" in="SourceGraphic" in2="BackgroundImageFix" result="shape"/>
<feGaussianBlur stdDeviation="8.15485" result="effect1_foregroundBlur"/>
</filter>
<filter id="filter3_f" x="13.9648" y="46.9186" width="234.865" height="127.118" filterUnits="userSpaceOnUse" color-interpolation-filters="sRGB">
<feFlood flood-opacity="0" result="BackgroundImageFix"/>
<feBlend mode="normal" in="SourceGraphic" in2="BackgroundImageFix" result="shape"/>
<feGaussianBlur stdDeviation="4.07742" result="effect1_foregroundBlur"/>
</filter>
<filter id="filter4_f" x="16.6831" y="49.7021" width="229.591" height="120.769" filterUnits="userSpaceOnUse" color-interpolation-filters="sRGB">
<feFlood flood-opacity="0" result="BackgroundImageFix"/>
<feBlend mode="normal" in="SourceGraphic" in2="BackgroundImageFix" result="shape"/>
<feGaussianBlur stdDeviation="2.71828" result="effect1_foregroundBlur"/>
</filter>
<filter id="filter5_f" x="16.6831" y="49.9626" width="229.591" height="120.769" filterUnits="userSpaceOnUse" color-interpolation-filters="sRGB">
<feFlood flood-opacity="0" result="BackgroundImageFix"/>
<feBlend mode="normal" in="SourceGraphic" in2="BackgroundImageFix" result="shape"/>
<feGaussianBlur stdDeviation="2.71828" result="effect1_foregroundBlur"/>
</filter>
<filter id="filter6_f" x="14.7905" y="53.6759" width="13.2637" height="28.4617" filterUnits="userSpaceOnUse" color-interpolation-filters="sRGB">
<feFlood flood-opacity="0" result="BackgroundImageFix"/>
<feBlend mode="normal" in="SourceGraphic" in2="BackgroundImageFix" result="shape"/>
<feGaussianBlur stdDeviation="2.71828" result="effect1_foregroundBlur"/>
</filter>
<filter id="filter7_f" x="13.812" y="82.3009" width="14.2424" height="87.7382" filterUnits="userSpaceOnUse" color-interpolation-filters="sRGB">
<feFlood flood-opacity="0" result="BackgroundImageFix"/>
<feBlend mode="normal" in="SourceGraphic" in2="BackgroundImageFix" result="shape"/>
<feGaussianBlur stdDeviation="2.71828" result="effect1_foregroundBlur"/>
</filter>
<filter id="filter8_f" x="235.641" y="82.3009" width="14.2425" height="87.7382" filterUnits="userSpaceOnUse" color-interpolation-filters="sRGB">
<feFlood flood-opacity="0" result="BackgroundImageFix"/>
<feBlend mode="normal" in="SourceGraphic" in2="BackgroundImageFix" result="shape"/>
<feGaussianBlur stdDeviation="2.71828" result="effect1_foregroundBlur"/>
</filter>
<filter id="filter9_f" x="5.61414" y="-17.7801" width="252.545" height="467.709" filterUnits="userSpaceOnUse" color-interpolation-filters="sRGB">
<feFlood flood-opacity="0" result="BackgroundImageFix"/>
<feBlend mode="normal" in="SourceGraphic" in2="BackgroundImageFix" result="shape"/>
<feGaussianBlur stdDeviation="8.15485" result="effect1_foregroundBlur"/>
</filter>
<filter id="filter10_f" x="-14.2279" y="-37.9275" width="291.609" height="513.768" filterUnits="userSpaceOnUse" color-interpolation-filters="sRGB">
<feFlood flood-opacity="0" result="BackgroundImageFix"/>
<feBlend mode="normal" in="SourceGraphic" in2="BackgroundImageFix" result="shape"/>
<feGaussianBlur stdDeviation="21.7463" result="effect1_foregroundBlur"/>
</filter>
<filter id="filter11_f" x="-14.2279" y="-37.9275" width="291.609" height="510.837" filterUnits="userSpaceOnUse" color-interpolation-filters="sRGB">
<feFlood flood-opacity="0" result="BackgroundImageFix"/>
<feBlend mode="normal" in="SourceGraphic" in2="BackgroundImageFix" result="shape"/>
<feGaussianBlur stdDeviation="21.7463" result="effect1_foregroundBlur"/>
</filter>
<filter id="filter12_f" x="5.26693" y="-16.0836" width="252.619" height="465.39" filterUnits="userSpaceOnUse" color-interpolation-filters="sRGB">
<feFlood flood-opacity="0" result="BackgroundImageFix"/>
<feBlend mode="normal" in="SourceGraphic" in2="BackgroundImageFix" result="shape"/>
<feGaussianBlur stdDeviation="10.8731" result="effect1_foregroundBlur"/>
</filter>
<filter id="filter13_f" x="5.26693" y="-16.0836" width="252.619" height="465.39" filterUnits="userSpaceOnUse" color-interpolation-filters="sRGB">
<feFlood flood-opacity="0" result="BackgroundImageFix"/>
<feBlend mode="normal" in="SourceGraphic" in2="BackgroundImageFix" result="shape"/>
<feGaussianBlur stdDeviation="10.8731" result="effect1_foregroundBlur"/>
</filter>
<filter id="filter14_f" x="-4.39868" y="-31.0607" width="271.951" height="91.3936" filterUnits="userSpaceOnUse" color-interpolation-filters="sRGB">
<feFlood flood-opacity="0" result="BackgroundImageFix"/>
<feBlend mode="normal" in="SourceGraphic" in2="BackgroundImageFix" result="shape"/>
<feGaussianBlur stdDeviation="16.3097" result="effect1_foregroundBlur"/>
</filter>
<filter id="filter15_f" x="4.52966" y="394.411" width="254.061" height="67.7965" filterUnits="userSpaceOnUse" color-interpolation-filters="sRGB">
<feFlood flood-opacity="0" result="BackgroundImageFix"/>
<feBlend mode="normal" in="SourceGraphic" in2="BackgroundImageFix" result="shape"/>
<feGaussianBlur stdDeviation="8.15485" result="effect1_foregroundBlur"/>
</filter>
<filter id="filter16_f" x="9.52918" y="404.573" width="244.094" height="48.8074" filterUnits="userSpaceOnUse" color-interpolation-filters="sRGB">
<feFlood flood-opacity="0" result="BackgroundImageFix"/>
<feBlend mode="normal" in="SourceGraphic" in2="BackgroundImageFix" result="shape"/>
<feGaussianBlur stdDeviation="8.15485" result="effect1_foregroundBlur"/>
</filter>
<filter id="filter17_f" x="13.1386" y="397.568" width="236.843" height="58.552" filterUnits="userSpaceOnUse" color-interpolation-filters="sRGB">
<feFlood flood-opacity="0" result="BackgroundImageFix"/>
<feBlend mode="normal" in="SourceGraphic" in2="BackgroundImageFix" result="shape"/>
<feGaussianBlur stdDeviation="5.43656" result="effect1_foregroundBlur"/>
</filter>
<filter id="filter18_f" x="12.0727" y="-9.6253" width="239.726" height="452.812" filterUnits="userSpaceOnUse" color-interpolation-filters="sRGB">
<feFlood flood-opacity="0" result="BackgroundImageFix"/>
<feBlend mode="normal" in="SourceGraphic" in2="BackgroundImageFix" result="shape"/>
<feGaussianBlur stdDeviation="4.07742" result="effect1_foregroundBlur"/>
</filter>
<filter id="filter19_f" x="10.6815" y="29.9265" width="241.986" height="375.259" filterUnits="userSpaceOnUse" color-interpolation-filters="sRGB">
<feFlood flood-opacity="0" result="BackgroundImageFix"/>
<feBlend mode="normal" in="SourceGraphic" in2="BackgroundImageFix" result="shape"/>
<feGaussianBlur stdDeviation="4.57724" result="effect1_foregroundBlur"/>
</filter>
<filter id="filter20_f" x="106.896" y="7.0307" width="49.0983" height="25.1777" filterUnits="userSpaceOnUse" color-interpolation-filters="sRGB">
<feFlood flood-opacity="0" result="BackgroundImageFix"/>
<feBlend mode="normal" in="SourceGraphic" in2="BackgroundImageFix" result="shape"/>
<feGaussianBlur stdDeviation="5.30914" result="effect1_foregroundBlur"/>
</filter>
<filter id="filter21_f" x="115.286" y="12.553" width="32.6132" height="7.78171" filterUnits="userSpaceOnUse" color-interpolation-filters="sRGB">
<feFlood flood-opacity="0" result="BackgroundImageFix"/>
<feBlend mode="normal" in="SourceGraphic" in2="BackgroundImageFix" result="shape"/>
<feGaussianBlur stdDeviation="1.35914" result="effect1_foregroundBlur"/>
</filter>
<filter id="filter22_i" x="118.331" y="15.6296" width="26.4589" height="4.648" filterUnits="userSpaceOnUse" color-interpolation-filters="sRGB">
<feFlood flood-opacity="0" result="BackgroundImageFix"/>
<feBlend mode="normal" in="SourceGraphic" in2="BackgroundImageFix" result="shape"/>
<feColorMatrix in="SourceAlpha" type="matrix" values="0 0 0 0 0 0 0 0 0 0 0 0 0 0 0 0 0 0 127 0" result="hardAlpha"/>
<feOffset dy="1"/>
<feGaussianBlur stdDeviation="1.5"/>
<feComposite in2="hardAlpha" operator="arithmetic" k2="-1" k3="1"/>
<feColorMatrix type="matrix" values="0 0 0 0 0 0 0 0 0 0 0 0 0 0 0 0 0 0 0.297186 0"/>
<feBlend mode="normal" in2="shape" result="effect1_innerShadow"/>
</filter>
<filter id="filter23_f" x="140.311" y="6.74321" width="28.6627" height="28.6514" filterUnits="userSpaceOnUse" color-interpolation-filters="sRGB">
<feFlood flood-opacity="0" result="BackgroundImageFix"/>
<feBlend mode="normal" in="SourceGraphic" in2="BackgroundImageFix" result="shape"/>
<feGaussianBlur stdDeviation="5.43656" result="effect1_foregroundBlur"/>
</filter>
<filter id="filter24_f" x="140.311" y="0.489544" width="28.6627" height="28.6514" filterUnits="userSpaceOnUse" color-interpolation-filters="sRGB">
<feFlood flood-opacity="0" result="BackgroundImageFix"/>
<feBlend mode="normal" in="SourceGraphic" in2="BackgroundImageFix" result="shape"/>
<feGaussianBlur stdDeviation="5.43656" result="effect1_foregroundBlur"/>
</filter>
<filter id="filter25_i" x="152.62" y="15.6296" width="4.17599" height="4.16914" filterUnits="userSpaceOnUse" color-interpolation-filters="sRGB">
<feFlood flood-opacity="0" result="BackgroundImageFix"/>
<feBlend mode="normal" in="SourceGraphic" in2="BackgroundImageFix" result="shape"/>
<feColorMatrix in="SourceAlpha" type="matrix" values="0 0 0 0 0 0 0 0 0 0 0 0 0 0 0 0 0 0 127 0" result="hardAlpha"/>
<feOffset/>
<feGaussianBlur stdDeviation="2.5"/>
<feComposite in2="hardAlpha" operator="arithmetic" k2="-1" k3="1"/>
<feColorMatrix type="matrix" values="0 0 0 0 0 0 0 0 0 0 0 0 0 0 0 0 0 0 0.281646 0"/>
<feBlend mode="normal" in2="shape" result="effect1_innerShadow"/>
</filter>
<filter id="filter26_f" x="150.387" y="15.4194" width="8.68743" height="6.73942" filterUnits="userSpaceOnUse" color-interpolation-filters="sRGB">
<feFlood flood-opacity="0" result="BackgroundImageFix"/>
<feBlend mode="normal" in="SourceGraphic" in2="BackgroundImageFix" result="shape"/>
<feGaussianBlur stdDeviation="1.35914" result="effect1_foregroundBlur"/>
</filter>
<filter id="filter27_f" x="150.815" y="13.8884" width="7.06779" height="7.06514" filterUnits="userSpaceOnUse" color-interpolation-filters="sRGB">
<feFlood flood-opacity="0" result="BackgroundImageFix"/>
<feBlend mode="normal" in="SourceGraphic" in2="BackgroundImageFix" result="shape"/>
<feGaussianBlur stdDeviation="1.35914" result="effect1_foregroundBlur"/>
</filter>
<linearGradient id="paint0_linear" x1="224.91" y1="432.786" x2="37.0684" y2="421.97" gradientUnits="userSpaceOnUse">
<stop stop-opacity="0.01"/>
<stop offset="0.0674672"/>
<stop offset="0.928003"/>
<stop offset="1" stop-opacity="0.01"/>
</linearGradient>
<linearGradient id="paint1_linear" x1="243.855" y1="432.177" x2="20.1191" y2="430.942" gradientUnits="userSpaceOnUse">
<stop stop-opacity="0.01"/>
<stop offset="0.0782494"/>
<stop offset="0.921377"/>
<stop offset="1" stop-opacity="0.01"/>
</linearGradient>
</defs>
</svg>
